<svg width="489" height="799" viewBox="0 0 489 799" fill="none" xmlns="http://www.w3.org/2000/svg">
<path d="M464.705 163.158L105.533 3.52624C100.426 1.25667 94.8996 0.0839844 89.3108 0.0839844C83.722 0.0839844 78.1954 1.25667 73.0882 3.52624L-286.084 163.158C-286.882 163.517 -287.44 164.116 -288.239 164.555C-289.356 165.114 -290.553 165.473 -291.591 166.151C-292.469 166.75 -293.147 167.508 -293.985 168.147C-296.903 170.315 -299.461 172.927 -301.568 175.889C-302.366 177.006 -303.204 178.004 -303.922 179.121C-305.11 181.23 -306.125 183.433 -306.955 185.706C-307.315 186.784 -307.873 187.781 -308.193 188.859C-309.195 192.364 -309.718 195.989 -309.749 199.634V598.714C-309.749 614.517 -300.49 628.764 -286.044 635.19L73.1281 794.822C78.3161 797.136 83.8234 798.254 89.3307 798.254C94.8873 798.111 100.352 796.806 105.374 794.422L105.533 794.822L464.705 635.19C471.765 632.059 477.763 626.945 481.971 620.47C486.179 613.995 488.416 606.436 488.41 598.714V199.634C488.416 191.911 486.179 184.353 481.971 177.878C477.763 171.403 471.765 166.289 464.705 163.158ZM89.3307 83.7014L350.249 199.634L89.3307 315.567L37.1311 292.38L-171.548 199.634L89.3307 83.7014ZM129.239 696.927V385.206L408.594 261.052V572.813L129.239 696.927Z" fill="#2C2C2C" fill-opacity="0.03"/>
</svg>
