<svg width="239" height="350" viewBox="0 0 239 350" fill="none" xmlns="http://www.w3.org/2000/svg">
<mask id="mask0_90_339" style="mask-type:alpha" maskUnits="userSpaceOnUse" x="0" y="0" width="239" height="350">
<rect x="0.420898" y="0.712891" width="238.021" height="348.551" fill="#C4C4C4"/>
</mask>
<g mask="url(#mask0_90_339)">
<path d="M179.99 77.4775L30.7537 11.1501C28.6317 10.2071 26.3353 9.71985 24.0132 9.71985C21.6911 9.71985 19.3947 10.2071 17.2727 11.1501L-131.964 77.4775C-132.295 77.6267 -132.528 77.8754 -132.859 78.0578C-133.324 78.29 -133.821 78.4392 -134.252 78.7211C-134.617 78.9698 -134.899 79.2849 -135.247 79.5502C-136.459 80.451 -137.522 81.5365 -138.398 82.7671C-138.729 83.2314 -139.077 83.6459 -139.376 84.1102C-139.869 84.9865 -140.291 85.9015 -140.636 86.8462C-140.785 87.2939 -141.018 87.7085 -141.15 88.1562C-141.567 89.6125 -141.784 91.1186 -141.797 92.6333V258.452C-141.797 265.018 -137.95 270.938 -131.947 273.607L17.2893 339.935C19.4449 340.897 21.7332 341.361 24.0215 341.361C26.3302 341.302 28.601 340.759 30.6874 339.769L30.7537 339.935L179.99 273.607C182.924 272.307 185.416 270.182 187.164 267.491C188.913 264.801 189.842 261.66 189.84 258.452V92.6333C189.842 89.4245 188.913 86.2841 187.164 83.5936C185.416 80.9031 182.924 78.7783 179.99 77.4775ZM24.0215 44.463L132.434 92.6333L24.0215 140.803L2.33246 131.169L-84.374 92.6333L24.0215 44.463ZM40.6033 299.26V169.739L156.676 118.153V247.69L40.6033 299.26Z" fill="#2C2C2C" fill-opacity="0.02"/>
</g>
</svg>
