<svg width="332" height="332" viewBox="0 0 332 332" fill="none" xmlns="http://www.w3.org/2000/svg">
<path d="M321.89 67.7928L172.653 1.46542C170.531 0.522409 168.235 0.0351563 165.913 0.0351562C163.59 0.0351563 161.294 0.522409 159.172 1.46542L9.93557 67.7928C9.60393 67.942 9.37179 68.1907 9.04015 68.3731C8.57586 68.6053 8.0784 68.7545 7.64727 69.0364C7.28247 69.2851 7.00058 69.6002 6.65236 69.8655C5.44028 70.7663 4.37715 71.8518 3.50181 73.0824C3.17018 73.5467 2.82196 73.9612 2.52349 74.4255C2.02996 75.3018 1.60849 76.2169 1.26327 77.1615C1.11403 77.6092 0.881886 78.0238 0.749231 78.4715C0.332786 79.9279 0.11525 81.4339 0.102539 82.9486V248.767C0.102539 255.333 3.94953 261.253 9.95215 263.923L159.189 330.25C161.344 331.212 163.633 331.676 165.921 331.676C168.23 331.617 170.5 331.075 172.587 330.084L172.653 330.25L321.89 263.923C324.823 262.622 327.315 260.497 329.064 257.807C330.812 255.116 331.742 251.976 331.739 248.767V82.9486C331.742 79.7398 330.812 76.5994 329.064 73.9089C327.315 71.2184 324.823 69.0936 321.89 67.7928ZM165.921 34.7783L274.333 82.9486L165.921 131.119L144.232 121.485L57.5254 82.9486L165.921 34.7783ZM182.503 289.575V160.054L298.576 108.468V238.005L182.503 289.575Z" fill="#2C2C2C" fill-opacity="0.02"/>
</svg>
