<svg width="544" height="799" viewBox="0 0 544 799" fill="none" xmlns="http://www.w3.org/2000/svg">
<path d="M775.303 163.31L416.131 3.6781C411.024 1.40852 405.497 0.23584 399.908 0.23584C394.32 0.23584 388.793 1.40852 383.686 3.6781L24.5141 163.31C23.7159 163.669 23.1572 164.268 22.359 164.707C21.2416 165.265 20.0444 165.625 19.0068 166.303C18.1288 166.902 17.4503 167.66 16.6123 168.298C13.6951 170.466 11.1365 173.079 9.02976 176.041C8.23161 177.158 7.39354 178.156 6.67519 179.273C5.4874 181.382 4.47306 183.584 3.64219 185.858C3.28302 186.936 2.72431 187.933 2.40505 189.011C1.40278 192.516 0.879224 196.14 0.848633 199.786V598.866C0.848633 614.669 10.1073 628.916 24.554 635.341L383.726 794.973C388.914 797.288 394.421 798.406 399.928 798.406C405.485 798.263 410.95 796.958 415.971 794.574L416.131 794.973L775.303 635.341C782.362 632.211 788.361 627.097 792.569 620.622C796.777 614.146 799.014 606.588 799.008 598.866V199.786C799.014 192.063 796.777 184.505 792.569 178.03C788.361 171.555 782.362 166.441 775.303 163.31ZM399.928 83.8532L660.847 199.786L399.928 315.719L347.729 292.532L139.05 199.786L399.928 83.8532ZM439.836 697.079V385.358L719.192 261.204V572.965L439.836 697.079Z" fill="#2C2C2C" fill-opacity="0.03"/>
</svg>
